<?xml version="1.0" encoding="UTF-8" standalone="no"?>
<svg
   version="1.1"
   width="228"
   height="228"
   style="clip-rule:evenodd;fill-rule:evenodd;image-rendering:optimizeQuality;shape-rendering:geometricPrecision;text-rendering:geometricPrecision"
   id="svg7"
   sodipodi:docname="strong2020.svg"
   inkscape:version="1.3 (0e150ed6c4, 2023-07-21)"
   inkscape:export-filename="strong2020.png"
   inkscape:export-xdpi="1024"
   inkscape:export-ydpi="1024"
   xmlns:inkscape="http://www.inkscape.org/namespaces/inkscape"
   xmlns:sodipodi="http://sodipodi.sourceforge.net/DTD/sodipodi-0.dtd"
   xmlns="http://www.w3.org/2000/svg"
   xmlns:svg="http://www.w3.org/2000/svg">
  <defs
     id="defs7" />
  <sodipodi:namedview
     id="namedview7"
     pagecolor="#ffffff"
     bordercolor="#000000"
     borderopacity="0.25"
     inkscape:showpageshadow="2"
     inkscape:pageopacity="0.0"
     inkscape:pagecheckerboard="0"
     inkscape:deskcolor="#d1d1d1"
     inkscape:zoom="3.7361994"
     inkscape:cx="102.10911"
     inkscape:cy="113.35048"
     inkscape:window-width="2560"
     inkscape:window-height="1369"
     inkscape:window-x="1912"
     inkscape:window-y="-8"
     inkscape:window-maximized="1"
     inkscape:current-layer="svg7" />
  <g
     id="g1"
     transform="translate(0.34335144,3.2537846)">
    <g
       id="g2"
       transform="translate(0.70846025,-0.2659702)">
      <path
         style="opacity:1"
         fill="#24783d"
         d="m 226.5,95.5 c 0.27606,6.01796 0.11178,14.41138 -1.79033,3.64612 C 218.66605,69.166442 201.07048,40.877688 174.16298,25.506408 143.05731,6.9454289 101.61595,5.2545596 70.612441,24.982856 49.288942,38.279619 32.271017,60.431741 29.803516,85.989882 c -3.838887,22.128298 1.704547,45.536858 15.565663,63.268928 7.019553,9.64895 16.318699,17.30348 25.982492,24.12347 C 47.289475,165.99206 29.733497,144.42155 22.843848,120.69881 10.371236,83.532479 27.523412,40.406582 59.804146,19.144978 94.885058,-6.3261997 145.57291,-5.751806 180.71469,19.223131 206.53497,36.03151 222.51885,65.337951 226.5,95.5 Z"
         id="path2" />
    </g>
    <g
       id="g3"
       transform="translate(0.70846025,-0.2659702)">
      <path
         style="opacity:1"
         fill="#1a4ea1"
         d="m 115.5,221.5 c -16.784053,1.189 -33.558247,-1.74345 -48.985543,-8.42147 -5.12993,-2.04477 -12.782603,-5.54908 -3.042515,-2.65907 17.586359,4.80666 36.070349,7.44223 54.134628,3.61176 40.33229,-6.11405 76.09039,-38.57144 83.09926,-79.21047 4.21595,-23.96467 0.96071,-50.38347 -14.37501,-70.024343 -16.71701,-25.120833 -47.71649,-37.843867 -77.33145,-35.70633 -11.496494,0.05288 -30.933056,8.954973 -36.013445,9.750172 27.340995,-20.313208 67.225435,-22.882765 96.082845,-4.1183 37.68571,22.203472 54.24912,72.275671 39.54916,113.054251 -12.32546,37.94211 -47.19565,66.93619 -86.59806,72.72629 -2.16528,0.38229 -4.33949,0.71381 -6.51987,0.99751 z"
         id="path3" />
    </g>
    <g
       id="g4"
       transform="translate(0.70846025,-0.2659702)">
      <path
         style="opacity:1"
         fill="#e22529"
         d="M -0.5,110.5 C -1.3050284,94.301114 0.04648183,77.870042 6.6524896,62.859679 14.795362,41.864474 29.334466,22.651046 49.5,12 21.882966,34.784204 4.8411916,71.188509 9.5199432,107.21839 c 2.8534778,39.25101 32.3665748,75.5778 71.0389868,84.45622 18.848434,4.19073 39.51321,4.56389 57.03338,-4.61919 28.97161,-12.03426 48.55822,-41.47519 50.6132,-72.47651 1.42356,-13.7243 2.71235,7.87288 1.82344,12.42618 -1.63555,24.32784 -15.15946,46.96598 -34.98138,60.94416 -30.15542,23.05383 -74.162215,22.65413 -105.690457,2.49191 C 23.55859,175.09705 5.6932397,148.06754 0.8092534,118.53645 0.2970343,115.87071 -0.13733771,113.19013 -0.5,110.5 Z"
         id="path4" />
    </g>
    <circle
       style="clip-rule:evenodd;fill:#e21f26;fill-opacity:1;fill-rule:evenodd;stroke-width:0.875765;image-rendering:optimizeQuality;shape-rendering:geometricPrecision;text-rendering:geometricPrecision"
       id="path1"
       cx="146.70847"
       cy="128.73402"
       r="30"
       inkscape:label="red" />
    <circle
       style="clip-rule:evenodd;fill:#21773b;fill-opacity:1;fill-rule:evenodd;stroke-width:0.875765;image-rendering:optimizeQuality;shape-rendering:geometricPrecision;text-rendering:geometricPrecision"
       id="path1-7"
       cx="75.084419"
       cy="127.08186"
       r="30"
       inkscape:label="green" />
    <circle
       style="clip-rule:evenodd;fill:#144ca0;fill-opacity:1;fill-rule:evenodd;stroke-width:0.875765;image-rendering:optimizeQuality;shape-rendering:geometricPrecision;text-rendering:geometricPrecision"
       id="path1-7-9"
       cx="111.3811"
       cy="67.084412"
       r="30"
       inkscape:label="blue" />
  </g>
</svg>
